<?xml version="1.0" standalone="no"?>
<!DOCTYPE svg PUBLIC "-//W3C//DTD SVG 20010904//EN"
 "http://www.w3.org/TR/2001/REC-SVG-20010904/DTD/svg10.dtd">
<svg version="1.0" xmlns="http://www.w3.org/2000/svg"
 width="400.000000pt" height="400.000000pt" viewBox="0 0 400.000000 400.000000"
 preserveAspectRatio="xMidYMid meet">

<g transform="translate(0.000000,400.000000) scale(0.100000,-0.100000)"
fill="#000000" stroke="none">
<path d="M1460 3835 c-18 -22 -1 -58 71 -146 113 -140 149 -188 149 -198 0 -6
-22 -55 -49 -109 -52 -104 -182 -393 -275 -609 -141 -331 -279 -618 -376 -783
-37 -63 -92 -158 -123 -211 -31 -53 -105 -197 -165 -320 -60 -123 -137 -271
-170 -328 -90 -155 -102 -236 -38 -270 23 -13 44 -12 168 7 323 50 442 56 993
57 431 1 541 4 645 18 242 33 379 38 900 35 283 -2 526 1 538 5 31 12 55 68
42 101 -5 13 -31 64 -58 113 -27 48 -81 149 -119 223 -147 286 -256 436 -560
772 -120 133 -423 466 -567 622 -71 78 -206 220 -301 316 -220 225 -355 374
-355 395 0 22 44 107 102 194 50 77 56 103 24 109 -24 5 -75 -45 -138 -138
-28 -41 -54 -79 -58 -83 -4 -5 -51 41 -105 103 -81 92 -135 140 -158 140 -3 0
-10 -7 -17 -15z m361 -497 c34 -40 121 -134 193 -208 72 -74 172 -178 221
-230 83 -88 133 -141 399 -430 98 -107 475 -530 555 -623 72 -84 197 -282 273
-432 39 -77 91 -178 115 -224 23 -46 43 -87 43 -91 0 -5 -235 -8 -522 -7 -521
2 -524 2 -748 -27 -221 -28 -234 -29 -765 -30 -533 -1 -680 -8 -905 -41 -52
-7 -96 -12 -98 -10 -5 5 29 69 86 163 28 46 65 117 82 158 66 160 172 366 277
538 137 225 292 554 530 1126 19 47 49 117 65 155 34 81 130 285 134 285 2 0
31 -33 65 -72z"/>
<path d="M1470 2393 c-40 -120 -12 -264 53 -271 22 -3 27 1 27 20 0 12 -10 46
-22 75 -21 51 -21 54 -5 135 12 59 13 86 5 95 -21 26 -36 12 -58 -54z"/>
<path d="M2034 2365 c-20 -49 -13 -111 21 -182 28 -56 51 -72 73 -49 12 12 9
25 -22 98 -20 46 -36 97 -36 113 0 17 -5 37 -10 45 -7 11 -13 6 -26 -25z"/>
<path d="M2005 1740 c-132 -4 -269 -12 -305 -19 -136 -25 -259 -69 -260 -93 0
-9 236 -2 336 10 45 5 208 7 363 4 250 -4 283 -3 306 12 29 19 32 46 7 69 -24
22 -146 27 -447 17z"/>
</g>
</svg>
